<svg id="visual" viewBox="0 0 960 540" width="960" height="540" xmlns="http://www.w3.org/2000/svg" xmlns:xlink="http://www.w3.org/1999/xlink" version="1.1"><rect x="0" y="0" width="960" height="540" fill="#2f3e46"></rect><path d="M0 153L7 158.2C14 163.3 28 173.7 41.8 174.7C55.7 175.7 69.3 167.3 83.2 167.3C97 167.3 111 175.7 125 176.2C139 176.7 153 169.3 167 162.5C181 155.7 195 149.3 208.8 147.8C222.7 146.3 236.3 149.7 250.2 150.5C264 151.3 278 149.7 292 155C306 160.3 320 172.7 334 175.3C348 178 362 171 375.8 170.2C389.7 169.3 403.3 174.7 417.2 170.8C431 167 445 154 459 150.2C473 146.3 487 151.7 501 149.7C515 147.7 529 138.3 542.8 142C556.7 145.7 570.3 162.3 584.2 161.7C598 161 612 143 626 140C640 137 654 149 668 154.8C682 160.7 696 160.3 709.8 156C723.7 151.7 737.3 143.3 751.2 140.2C765 137 779 139 793 142C807 145 821 149 835 155.7C849 162.3 863 171.7 876.8 170.8C890.7 170 904.3 159 918.2 152.3C932 145.7 946 143.3 953 142.2L960 141L960 541L953 541C946 541 932 541 918.2 541C904.3 541 890.7 541 876.8 541C863 541 849 541 835 541C821 541 807 541 793 541C779 541 765 541 751.2 541C737.3 541 723.7 541 709.8 541C696 541 682 541 668 541C654 541 640 541 626 541C612 541 598 541 584.2 541C570.3 541 556.7 541 542.8 541C529 541 515 541 501 541C487 541 473 541 459 541C445 541 431 541 417.2 541C403.3 541 389.7 541 375.8 541C362 541 348 541 334 541C320 541 306 541 292 541C278 541 264 541 250.2 541C236.3 541 222.7 541 208.8 541C195 541 181 541 167 541C153 541 139 541 125 541C111 541 97 541 83.2 541C69.3 541 55.7 541 41.8 541C28 541 14 541 7 541L0 541Z" fill="#354f52"></path><path d="M0 208L7 206.5C14 205 28 202 41.8 200.8C55.7 199.7 69.3 200.3 83.2 195.2C97 190 111 179 125 175.3C139 171.7 153 175.3 167 182.3C181 189.3 195 199.7 208.8 197.7C222.7 195.7 236.3 181.3 250.2 178.8C264 176.3 278 185.7 292 186.8C306 188 320 181 334 174.7C348 168.3 362 162.7 375.8 161.3C389.7 160 403.3 163 417.2 165C431 167 445 168 459 174.8C473 181.7 487 194.3 501 194.8C515 195.3 529 183.7 542.8 178.7C556.7 173.7 570.3 175.3 584.2 174.3C598 173.3 612 169.7 626 168.3C640 167 654 168 668 172C682 176 696 183 709.8 183.2C723.7 183.3 737.3 176.7 751.2 176.3C765 176 779 182 793 189.2C807 196.3 821 204.7 835 203.3C849 202 863 191 876.8 189.3C890.7 187.7 904.3 195.3 918.2 201C932 206.7 946 210.3 953 212.2L960 214L960 541L953 541C946 541 932 541 918.2 541C904.3 541 890.7 541 876.8 541C863 541 849 541 835 541C821 541 807 541 793 541C779 541 765 541 751.2 541C737.3 541 723.7 541 709.8 541C696 541 682 541 668 541C654 541 640 541 626 541C612 541 598 541 584.2 541C570.3 541 556.7 541 542.8 541C529 541 515 541 501 541C487 541 473 541 459 541C445 541 431 541 417.2 541C403.3 541 389.7 541 375.8 541C362 541 348 541 334 541C320 541 306 541 292 541C278 541 264 541 250.2 541C236.3 541 222.7 541 208.8 541C195 541 181 541 167 541C153 541 139 541 125 541C111 541 97 541 83.2 541C69.3 541 55.7 541 41.8 541C28 541 14 541 7 541L0 541Z" fill="#375355"></path><path d="M0 223L7 223.5C14 224 28 225 41.8 221.7C55.7 218.3 69.3 210.7 83.2 210C97 209.3 111 215.7 125 221.7C139 227.7 153 233.3 167 236.2C181 239 195 239 208.8 236C222.7 233 236.3 227 250.2 227.5C264 228 278 235 292 233C306 231 320 220 334 217.5C348 215 362 221 375.8 220.5C389.7 220 403.3 213 417.2 213.8C431 214.7 445 223.3 459 228.8C473 234.3 487 236.7 501 231.5C515 226.3 529 213.7 542.8 207.7C556.7 201.7 570.3 202.3 584.2 206.2C598 210 612 217 626 219C640 221 654 218 668 220.8C682 223.7 696 232.3 709.8 230.2C723.7 228 737.3 215 751.2 209C765 203 779 204 793 202.7C807 201.3 821 197.7 835 198.7C849 199.7 863 205.3 876.8 207C890.7 208.7 904.3 206.3 918.2 208.5C932 210.7 946 217.3 953 220.7L960 224L960 541L953 541C946 541 932 541 918.2 541C904.3 541 890.7 541 876.8 541C863 541 849 541 835 541C821 541 807 541 793 541C779 541 765 541 751.2 541C737.3 541 723.7 541 709.8 541C696 541 682 541 668 541C654 541 640 541 626 541C612 541 598 541 584.2 541C570.3 541 556.7 541 542.8 541C529 541 515 541 501 541C487 541 473 541 459 541C445 541 431 541 417.2 541C403.3 541 389.7 541 375.8 541C362 541 348 541 334 541C320 541 306 541 292 541C278 541 264 541 250.2 541C236.3 541 222.7 541 208.8 541C195 541 181 541 167 541C153 541 139 541 125 541C111 541 97 541 83.2 541C69.3 541 55.7 541 41.8 541C28 541 14 541 7 541L0 541Z" fill="#395758"></path><path d="M0 243L7 245.2C14 247.3 28 251.7 41.8 252.8C55.7 254 69.3 252 83.2 251.8C97 251.7 111 253.3 125 256.2C139 259 153 263 167 262.7C181 262.3 195 257.7 208.8 253.3C222.7 249 236.3 245 250.2 246.2C264 247.3 278 253.7 292 251.7C306 249.7 320 239.3 334 237.5C348 235.7 362 242.3 375.8 244.8C389.7 247.3 403.3 245.7 417.2 245.7C431 245.7 445 247.3 459 244C473 240.7 487 232.3 501 229.7C515 227 529 230 542.8 230.8C556.7 231.7 570.3 230.3 584.2 231.2C598 232 612 235 626 237.8C640 240.7 654 243.3 668 241.2C682 239 696 232 709.8 229.2C723.7 226.3 737.3 227.7 751.2 232.5C765 237.3 779 245.7 793 249C807 252.3 821 250.7 835 251.5C849 252.3 863 255.7 876.8 254.7C890.7 253.7 904.3 248.3 918.2 248.8C932 249.3 946 255.7 953 258.8L960 262L960 541L953 541C946 541 932 541 918.2 541C904.3 541 890.7 541 876.8 541C863 541 849 541 835 541C821 541 807 541 793 541C779 541 765 541 751.2 541C737.3 541 723.7 541 709.8 541C696 541 682 541 668 541C654 541 640 541 626 541C612 541 598 541 584.2 541C570.3 541 556.7 541 542.8 541C529 541 515 541 501 541C487 541 473 541 459 541C445 541 431 541 417.2 541C403.3 541 389.7 541 375.8 541C362 541 348 541 334 541C320 541 306 541 292 541C278 541 264 541 250.2 541C236.3 541 222.7 541 208.8 541C195 541 181 541 167 541C153 541 139 541 125 541C111 541 97 541 83.2 541C69.3 541 55.7 541 41.8 541C28 541 14 541 7 541L0 541Z" fill="#3b5a5b"></path><path d="M0 277L7 279.8C14 282.7 28 288.3 41.8 285.2C55.7 282 69.3 270 83.2 265.8C97 261.7 111 265.3 125 268.3C139 271.3 153 273.7 167 275.2C181 276.7 195 277.3 208.8 280.7C222.7 284 236.3 290 250.2 289.7C264 289.3 278 282.7 292 276.8C306 271 320 266 334 269.5C348 273 362 285 375.8 285.5C389.7 286 403.3 275 417.2 272.5C431 270 445 276 459 277C473 278 487 274 501 272.2C515 270.3 529 270.7 542.8 272.2C556.7 273.7 570.3 276.3 584.2 278.3C598 280.3 612 281.7 626 280.3C640 279 654 275 668 271.3C682 267.7 696 264.3 709.8 269.3C723.7 274.3 737.3 287.7 751.2 288.8C765 290 779 279 793 272.8C807 266.7 821 265.3 835 266.5C849 267.7 863 271.3 876.8 273.8C890.7 276.3 904.3 277.7 918.2 278C932 278.3 946 277.7 953 277.3L960 277L960 541L953 541C946 541 932 541 918.2 541C904.3 541 890.7 541 876.8 541C863 541 849 541 835 541C821 541 807 541 793 541C779 541 765 541 751.2 541C737.3 541 723.7 541 709.8 541C696 541 682 541 668 541C654 541 640 541 626 541C612 541 598 541 584.2 541C570.3 541 556.7 541 542.8 541C529 541 515 541 501 541C487 541 473 541 459 541C445 541 431 541 417.2 541C403.3 541 389.7 541 375.8 541C362 541 348 541 334 541C320 541 306 541 292 541C278 541 264 541 250.2 541C236.3 541 222.7 541 208.8 541C195 541 181 541 167 541C153 541 139 541 125 541C111 541 97 541 83.2 541C69.3 541 55.7 541 41.8 541C28 541 14 541 7 541L0 541Z" fill="#3d5e5e"></path><path d="M0 303L7 306.8C14 310.7 28 318.3 41.8 321.7C55.7 325 69.3 324 83.2 324.3C97 324.7 111 326.3 125 325.7C139 325 153 322 167 321.3C181 320.7 195 322.3 208.8 321.5C222.7 320.7 236.3 317.3 250.2 316.3C264 315.3 278 316.7 292 319.5C306 322.3 320 326.7 334 328.5C348 330.3 362 329.7 375.8 323.3C389.7 317 403.3 305 417.2 304.3C431 303.7 445 314.3 459 315.2C473 316 487 307 501 307.5C515 308 529 318 542.8 318.5C556.7 319 570.3 310 584.2 309.3C598 308.7 612 316.3 626 317.3C640 318.3 654 312.7 668 312.3C682 312 696 317 709.8 317.8C723.7 318.7 737.3 315.3 751.2 316.8C765 318.3 779 324.7 793 326C807 327.3 821 323.7 835 321.7C849 319.7 863 319.3 876.8 316.3C890.7 313.3 904.3 307.7 918.2 303.8C932 300 946 298 953 297L960 296L960 541L953 541C946 541 932 541 918.2 541C904.3 541 890.7 541 876.8 541C863 541 849 541 835 541C821 541 807 541 793 541C779 541 765 541 751.2 541C737.3 541 723.7 541 709.8 541C696 541 682 541 668 541C654 541 640 541 626 541C612 541 598 541 584.2 541C570.3 541 556.7 541 542.8 541C529 541 515 541 501 541C487 541 473 541 459 541C445 541 431 541 417.2 541C403.3 541 389.7 541 375.8 541C362 541 348 541 334 541C320 541 306 541 292 541C278 541 264 541 250.2 541C236.3 541 222.7 541 208.8 541C195 541 181 541 167 541C153 541 139 541 125 541C111 541 97 541 83.2 541C69.3 541 55.7 541 41.8 541C28 541 14 541 7 541L0 541Z" fill="#406261"></path><path d="M0 359L7 355C14 351 28 343 41.8 338C55.7 333 69.3 331 83.2 330.2C97 329.3 111 329.7 125 331.5C139 333.3 153 336.7 167 341C181 345.3 195 350.7 208.8 353.8C222.7 357 236.3 358 250.2 354.7C264 351.3 278 343.7 292 340C306 336.3 320 336.7 334 339C348 341.3 362 345.7 375.8 346C389.7 346.3 403.3 342.7 417.2 344.2C431 345.7 445 352.3 459 355.3C473 358.3 487 357.7 501 352.3C515 347 529 337 542.8 337C556.7 337 570.3 347 584.2 350.2C598 353.3 612 349.7 626 347C640 344.3 654 342.7 668 339.2C682 335.7 696 330.3 709.8 329.7C723.7 329 737.3 333 751.2 333.2C765 333.3 779 329.7 793 328.3C807 327 821 328 835 331.2C849 334.3 863 339.7 876.8 344.7C890.7 349.7 904.3 354.3 918.2 356.3C932 358.3 946 357.7 953 357.3L960 357L960 541L953 541C946 541 932 541 918.2 541C904.3 541 890.7 541 876.8 541C863 541 849 541 835 541C821 541 807 541 793 541C779 541 765 541 751.2 541C737.3 541 723.7 541 709.8 541C696 541 682 541 668 541C654 541 640 541 626 541C612 541 598 541 584.2 541C570.3 541 556.7 541 542.8 541C529 541 515 541 501 541C487 541 473 541 459 541C445 541 431 541 417.2 541C403.3 541 389.7 541 375.8 541C362 541 348 541 334 541C320 541 306 541 292 541C278 541 264 541 250.2 541C236.3 541 222.7 541 208.8 541C195 541 181 541 167 541C153 541 139 541 125 541C111 541 97 541 83.2 541C69.3 541 55.7 541 41.8 541C28 541 14 541 7 541L0 541Z" fill="#426663"></path><path d="M0 361L7 360.8C14 360.7 28 360.3 41.8 361C55.7 361.7 69.3 363.3 83.2 366.8C97 370.3 111 375.7 125 374.8C139 374 153 367 167 365C181 363 195 366 208.8 370.3C222.7 374.7 236.3 380.3 250.2 381.8C264 383.3 278 380.7 292 380.3C306 380 320 382 334 382.7C348 383.3 362 382.7 375.8 381.7C389.7 380.7 403.3 379.3 417.2 378.8C431 378.3 445 378.7 459 379.3C473 380 487 381 501 379.2C515 377.3 529 372.7 542.8 373.8C556.7 375 570.3 382 584.2 383.5C598 385 612 381 626 376C640 371 654 365 668 364.2C682 363.3 696 367.7 709.8 371C723.7 374.3 737.3 376.7 751.2 375C765 373.3 779 367.7 793 367C807 366.3 821 370.7 835 372.7C849 374.7 863 374.3 876.8 373.7C890.7 373 904.3 372 918.2 372.5C932 373 946 375 953 376L960 377L960 541L953 541C946 541 932 541 918.2 541C904.3 541 890.7 541 876.8 541C863 541 849 541 835 541C821 541 807 541 793 541C779 541 765 541 751.2 541C737.3 541 723.7 541 709.8 541C696 541 682 541 668 541C654 541 640 541 626 541C612 541 598 541 584.2 541C570.3 541 556.7 541 542.8 541C529 541 515 541 501 541C487 541 473 541 459 541C445 541 431 541 417.2 541C403.3 541 389.7 541 375.8 541C362 541 348 541 334 541C320 541 306 541 292 541C278 541 264 541 250.2 541C236.3 541 222.7 541 208.8 541C195 541 181 541 167 541C153 541 139 541 125 541C111 541 97 541 83.2 541C69.3 541 55.7 541 41.8 541C28 541 14 541 7 541L0 541Z" fill="#456a66"></path><path d="M0 407L7 405.3C14 403.7 28 400.3 41.8 400.5C55.7 400.7 69.3 404.3 83.2 405.5C97 406.7 111 405.3 125 402.3C139 399.3 153 394.7 167 396.3C181 398 195 406 208.8 406C222.7 406 236.3 398 250.2 395C264 392 278 394 292 396C306 398 320 400 334 402.7C348 405.3 362 408.7 375.8 408.3C389.7 408 403.3 404 417.2 401.3C431 398.7 445 397.3 459 398.8C473 400.3 487 404.7 501 405.2C515 405.7 529 402.3 542.8 400.8C556.7 399.3 570.3 399.7 584.2 398.3C598 397 612 394 626 395.7C640 397.3 654 403.7 668 405C682 406.3 696 402.7 709.8 403C723.7 403.3 737.3 407.7 751.2 409.7C765 411.7 779 411.3 793 409.3C807 407.3 821 403.7 835 400.2C849 396.7 863 393.3 876.8 393.3C890.7 393.3 904.3 396.7 918.2 399.5C932 402.3 946 404.7 953 405.8L960 407L960 541L953 541C946 541 932 541 918.2 541C904.3 541 890.7 541 876.8 541C863 541 849 541 835 541C821 541 807 541 793 541C779 541 765 541 751.2 541C737.3 541 723.7 541 709.8 541C696 541 682 541 668 541C654 541 640 541 626 541C612 541 598 541 584.2 541C570.3 541 556.7 541 542.8 541C529 541 515 541 501 541C487 541 473 541 459 541C445 541 431 541 417.2 541C403.3 541 389.7 541 375.8 541C362 541 348 541 334 541C320 541 306 541 292 541C278 541 264 541 250.2 541C236.3 541 222.7 541 208.8 541C195 541 181 541 167 541C153 541 139 541 125 541C111 541 97 541 83.2 541C69.3 541 55.7 541 41.8 541C28 541 14 541 7 541L0 541Z" fill="#486e68"></path><path d="M0 430L7 430.7C14 431.3 28 432.7 41.8 433.2C55.7 433.7 69.3 433.3 83.2 432C97 430.7 111 428.3 125 427.5C139 426.7 153 427.3 167 427.7C181 428 195 428 208.8 428C222.7 428 236.3 428 250.2 429.3C264 430.7 278 433.3 292 433.8C306 434.3 320 432.7 334 433.7C348 434.7 362 438.3 375.8 439C389.7 439.7 403.3 437.3 417.2 434.2C431 431 445 427 459 427.7C473 428.3 487 433.7 501 434.3C515 435 529 431 542.8 430C556.7 429 570.3 431 584.2 430.7C598 430.3 612 427.7 626 428.8C640 430 654 435 668 437C682 439 696 438 709.8 437.3C723.7 436.7 737.3 436.3 751.2 437C765 437.7 779 439.3 793 440.5C807 441.7 821 442.3 835 440.3C849 438.3 863 433.7 876.8 431.8C890.7 430 904.3 431 918.2 433.5C932 436 946 440 953 442L960 444L960 541L953 541C946 541 932 541 918.2 541C904.3 541 890.7 541 876.8 541C863 541 849 541 835 541C821 541 807 541 793 541C779 541 765 541 751.2 541C737.3 541 723.7 541 709.8 541C696 541 682 541 668 541C654 541 640 541 626 541C612 541 598 541 584.2 541C570.3 541 556.7 541 542.8 541C529 541 515 541 501 541C487 541 473 541 459 541C445 541 431 541 417.2 541C403.3 541 389.7 541 375.8 541C362 541 348 541 334 541C320 541 306 541 292 541C278 541 264 541 250.2 541C236.3 541 222.7 541 208.8 541C195 541 181 541 167 541C153 541 139 541 125 541C111 541 97 541 83.2 541C69.3 541 55.7 541 41.8 541C28 541 14 541 7 541L0 541Z" fill="#4b716b"></path><path d="M0 464L7 466C14 468 28 472 41.8 474.2C55.7 476.3 69.3 476.7 83.2 475.3C97 474 111 471 125 468.8C139 466.7 153 465.3 167 465.3C181 465.3 195 466.7 208.8 465.8C222.7 465 236.3 462 250.2 463.3C264 464.7 278 470.3 292 470.7C306 471 320 466 334 465.5C348 465 362 469 375.8 470.3C389.7 471.7 403.3 470.3 417.2 468.2C431 466 445 463 459 464.2C473 465.3 487 470.7 501 471.2C515 471.7 529 467.3 542.8 464.3C556.7 461.3 570.3 459.7 584.2 459.2C598 458.7 612 459.3 626 461.5C640 463.7 654 467.3 668 467.2C682 467 696 463 709.8 461.3C723.7 459.7 737.3 460.3 751.2 461.7C765 463 779 465 793 467.5C807 470 821 473 835 472.3C849 471.7 863 467.3 876.8 464.5C890.7 461.7 904.3 460.3 918.2 461.8C932 463.3 946 467.7 953 469.8L960 472L960 541L953 541C946 541 932 541 918.2 541C904.3 541 890.7 541 876.8 541C863 541 849 541 835 541C821 541 807 541 793 541C779 541 765 541 751.2 541C737.3 541 723.7 541 709.8 541C696 541 682 541 668 541C654 541 640 541 626 541C612 541 598 541 584.2 541C570.3 541 556.7 541 542.8 541C529 541 515 541 501 541C487 541 473 541 459 541C445 541 431 541 417.2 541C403.3 541 389.7 541 375.8 541C362 541 348 541 334 541C320 541 306 541 292 541C278 541 264 541 250.2 541C236.3 541 222.7 541 208.8 541C195 541 181 541 167 541C153 541 139 541 125 541C111 541 97 541 83.2 541C69.3 541 55.7 541 41.8 541C28 541 14 541 7 541L0 541Z" fill="#4f756d"></path><path d="M0 498L7 497.2C14 496.3 28 494.7 41.8 494.8C55.7 495 69.3 497 83.2 497.7C97 498.3 111 497.7 125 498C139 498.3 153 499.7 167 499.3C181 499 195 497 208.8 497.7C222.7 498.3 236.3 501.7 250.2 500.7C264 499.7 278 494.3 292 493.3C306 492.3 320 495.7 334 496.3C348 497 362 495 375.8 494C389.7 493 403.3 493 417.2 494.7C431 496.3 445 499.7 459 499.5C473 499.3 487 495.7 501 494.3C515 493 529 494 542.8 493.8C556.7 493.7 570.3 492.3 584.2 492.8C598 493.3 612 495.7 626 497C640 498.3 654 498.7 668 497.5C682 496.3 696 493.7 709.8 494C723.7 494.3 737.3 497.7 751.2 498.3C765 499 779 497 793 496.2C807 495.3 821 495.7 835 496.3C849 497 863 498 876.8 499.7C890.7 501.3 904.3 503.7 918.2 503.3C932 503 946 500 953 498.5L960 497L960 541L953 541C946 541 932 541 918.2 541C904.3 541 890.7 541 876.8 541C863 541 849 541 835 541C821 541 807 541 793 541C779 541 765 541 751.2 541C737.3 541 723.7 541 709.8 541C696 541 682 541 668 541C654 541 640 541 626 541C612 541 598 541 584.2 541C570.3 541 556.7 541 542.8 541C529 541 515 541 501 541C487 541 473 541 459 541C445 541 431 541 417.2 541C403.3 541 389.7 541 375.8 541C362 541 348 541 334 541C320 541 306 541 292 541C278 541 264 541 250.2 541C236.3 541 222.7 541 208.8 541C195 541 181 541 167 541C153 541 139 541 125 541C111 541 97 541 83.2 541C69.3 541 55.7 541 41.8 541C28 541 14 541 7 541L0 541Z" fill="#52796f"></path></svg>