<svg id="visual" viewBox="0 0 675 900" width="675" height="900" xmlns="http://www.w3.org/2000/svg" xmlns:xlink="http://www.w3.org/1999/xlink" version="1.1"><rect x="0" y="0" width="675" height="900" fill="#32474c"></rect><defs><linearGradient id="grad1_0" x1="0%" y1="0%" x2="100%" y2="100%"><stop offset="30%" stop-color="#84a98c" stop-opacity="1"></stop><stop offset="70%" stop-color="#84a98c" stop-opacity="1"></stop></linearGradient></defs><defs><linearGradient id="grad1_1" x1="0%" y1="0%" x2="100%" y2="100%"><stop offset="30%" stop-color="#84a98c" stop-opacity="1"></stop><stop offset="70%" stop-color="#32474c" stop-opacity="1"></stop></linearGradient></defs><defs><linearGradient id="grad2_0" x1="0%" y1="0%" x2="100%" y2="100%"><stop offset="30%" stop-color="#84a98c" stop-opacity="1"></stop><stop offset="70%" stop-color="#84a98c" stop-opacity="1"></stop></linearGradient></defs><defs><linearGradient id="grad2_1" x1="0%" y1="0%" x2="100%" y2="100%"><stop offset="30%" stop-color="#32474c" stop-opacity="1"></stop><stop offset="70%" stop-color="#84a98c" stop-opacity="1"></stop></linearGradient></defs><g transform="translate(675, 0)"><path d="M0 506.3C-48.1 509.5 -96.2 512.8 -128.4 479.1C-160.6 445.4 -176.9 374.7 -191 330.8C-205.1 286.9 -217 269.7 -267.3 267.3C-317.6 264.9 -406.2 277.3 -438.4 253.1C-470.6 229 -446.3 168.4 -448.2 120.1C-450.1 71.8 -478.2 35.9 -506.2 0L0 0Z" fill="#507772"></path><path d="M0 253.1C-24 254.8 -48.1 256.4 -64.2 239.5C-80.3 222.7 -88.4 187.4 -95.5 165.4C-102.6 143.4 -108.5 134.8 -133.6 133.6C-158.8 132.4 -203.1 138.6 -219.2 126.6C-235.3 114.5 -223.2 84.2 -224.1 60C-225 35.9 -239.1 18 -253.1 0L0 0Z" fill="#84a98c"></path></g><g transform="translate(0, 900)"><path d="M0 -506.2C33.6 -463.5 67.3 -420.8 111.6 -416.3C155.8 -411.8 210.8 -445.6 253.1 -438.4C295.5 -431.2 325.2 -383 328.8 -328.8C332.4 -274.6 309.7 -214.6 304 -175.5C298.2 -136.4 309.3 -118.4 345.8 -92.7C382.3 -66.9 444.3 -33.5 506.3 0L0 0Z" fill="#507772"></path><path d="M0 -253.1C16.8 -231.8 33.6 -210.4 55.8 -208.2C77.9 -205.9 105.4 -222.8 126.6 -219.2C147.7 -215.6 162.6 -191.5 164.4 -164.4C166.2 -137.3 154.9 -107.3 152 -87.8C149.1 -68.2 154.6 -59.2 172.9 -46.3C191.2 -33.5 222.1 -16.7 253.1 0L0 0Z" fill="#84a98c"></path></g></svg>